<svg width="445" height="140" viewBox="0 0 445 140" fill="none" xmlns="http://www.w3.org/2000/svg">
<path d="M17.832 68.5547V130H6.44531V68.5547H17.832ZM29.6914 130V84.8828H38.5L39.918 91.5C44.2435 87.0885 49.1706 84.8828 54.6992 84.8828C65.3841 84.8828 70.7266 90.4401 70.7266 101.555V130H59.3398V101.555C59.3398 96.5703 56.862 94.0781 51.9062 94.0781C48.2109 94.0781 44.6016 95.5534 41.0781 98.5039V130H29.6914ZM81.5117 130V84.8828C81.5117 72.5078 88.2721 66.3203 101.793 66.3203C105.488 66.3203 108.84 66.8932 111.848 68.0391V77.0625C109.012 75.9167 105.932 75.3438 102.609 75.3438C96.1354 75.3438 92.8984 78.5234 92.8984 84.8828H106.434V93.9062H92.8984V130H81.5117ZM119.625 107.27C119.625 116.694 123.277 121.406 130.582 121.406C137.887 121.406 141.539 116.694 141.539 107.27C141.539 98.0742 137.887 93.4766 130.582 93.4766C123.277 93.4766 119.625 98.0742 119.625 107.27ZM108.238 107.441C108.238 92.3164 115.686 84.7539 130.582 84.7539C145.478 84.7539 152.926 92.3164 152.926 107.441C152.926 122.538 145.478 130.086 130.582 130.086C115.743 130.086 108.296 122.538 108.238 107.441ZM162.594 130V68.5547H190.094C202.641 68.5547 208.914 74.3268 208.914 85.8711C208.914 98.3893 200.335 105.966 183.176 108.602L181.543 98.4609C191.855 96.599 197.012 92.5169 197.012 86.2148C197.012 81.1159 194.462 78.5664 189.363 78.5664H173.98V130H162.594ZM215.402 130V84.8828H224.211L225.629 90.6406C229.582 86.8021 233.764 84.8828 238.176 84.8828V94.0781C233.936 94.0781 230.141 95.8398 226.789 99.3633V130H215.402ZM253.859 107.27C253.859 116.694 257.512 121.406 264.816 121.406C272.121 121.406 275.773 116.694 275.773 107.27C275.773 98.0742 272.121 93.4766 264.816 93.4766C257.512 93.4766 253.859 98.0742 253.859 107.27ZM242.473 107.441C242.473 92.3164 249.921 84.7539 264.816 84.7539C279.712 84.7539 287.16 92.3164 287.16 107.441C287.16 122.538 279.712 130.086 264.816 130.086C249.978 130.086 242.53 122.538 242.473 107.441Z" fill="#303030"/>
<path d="M352.223 115.949C352.223 106.983 358.754 102.5 371.816 102.5C374.882 102.5 377.947 102.786 381.012 103.359V99.9648C381.012 95.9258 378.104 93.9062 372.289 93.9062C367.362 93.9062 361.891 94.6224 355.875 96.0547V87.0312C361.891 85.599 367.362 84.8828 372.289 84.8828C385.695 84.8828 392.398 89.8385 392.398 99.75V130H385.781L381.742 125.961C377.818 128.654 373.492 130 368.766 130C357.737 130 352.223 125.316 352.223 115.949ZM381.012 111.094C378.147 110.521 375.082 110.234 371.816 110.234C366.345 110.234 363.609 112.096 363.609 115.82C363.609 119.831 365.901 121.836 370.484 121.836C374.266 121.836 377.775 120.661 381.012 118.312V111.094ZM403.184 127.852V118.398C408.197 120.404 413.983 121.406 420.543 121.406C425.441 121.406 427.891 119.831 427.891 116.68C427.891 113.672 426.243 112.168 422.949 112.168H414.785C405.618 112.168 401.035 107.656 401.035 98.6328C401.035 89.1797 407.724 84.4531 421.102 84.4531C426.773 84.4531 432.116 85.3125 437.129 87.0312V96.4844C432.116 94.4792 426.673 93.4766 420.801 93.4766C414.642 93.4766 411.562 95.0521 411.562 98.2031C411.562 101.211 413.353 102.715 416.934 102.715H424.238C434.264 102.715 439.277 107.227 439.277 116.25C439.277 125.703 432.889 130.43 420.113 130.43C413.84 130.43 408.197 129.57 403.184 127.852Z" fill="#303030"/>
<path d="M315.119 139C315.119 139 324.78 129.534 331.809 127.353C334.005 120.101 352.669 58.1327 419 8.91017C416.368 4.29659 414.39 1 414.39 1C414.39 1 352.467 37.9169 321.062 101.202C317.772 93.5103 300.86 53.9595 280 84.9417C287.432 83.6247 298.631 79.8877 315.119 139Z" fill="#00A8A1" stroke="#00A8A1" stroke-miterlimit="10"/>
</svg>
